<svg width="24" height="24" viewBox="0 0 24 24" fill="none" xmlns="http://www.w3.org/2000/svg">
<path d="M19.5301 8.818C19.4141 8.908 17.3661 10.062 17.3661 12.628C17.3661 15.596 19.9721 16.646 20.0501 16.672C20.0381 16.736 19.6361 18.11 18.6761 19.51C17.8201 20.742 16.9261 21.972 15.5661 21.972C14.2061 21.972 13.8561 21.182 12.2861 21.182C10.7561 21.182 10.2121 21.998 8.96807 21.998C7.72407 21.998 6.85607 20.858 5.85807 19.458C4.70207 17.814 3.76807 15.26 3.76807 12.836C3.76807 8.948 6.29607 6.886 8.78407 6.886C10.1061 6.886 11.2081 7.754 12.0381 7.754C12.8281 7.754 14.0601 6.834 15.5641 6.834C16.1341 6.834 18.1821 6.886 19.5301 8.818ZM14.8501 5.188C15.4721 4.45 15.9121 3.426 15.9121 2.402C15.9121 2.26 15.9001 2.116 15.8741 2C14.8621 2.038 13.6581 2.674 12.9321 3.516C12.3621 4.164 11.8301 5.188 11.8301 6.226C11.8301 6.382 11.8561 6.538 11.8681 6.588C11.9321 6.6 12.0361 6.614 12.1401 6.614C13.0481 6.614 14.1901 6.006 14.8501 5.188Z" fill="black"/>
</svg>
