<svg width="24" height="24" viewBox="0 0 24 24" fill="none" xmlns="http://www.w3.org/2000/svg">
<path d="M21.58 12.2273C21.58 11.5182 21.5164 10.8364 21.3982 10.1818H11.98V14.0546H17.3618C17.1254 15.3 16.4163 16.3546 15.3527 17.0636V19.5818H18.5982C20.4891 17.8364 21.58 15.2727 21.58 12.2273Z" fill="#1A1B1F"/>
<path d="M11.98 22C14.68 22 16.9437 21.1091 18.5982 19.5818L15.3527 17.0636C14.4618 17.6636 13.3255 18.0272 11.98 18.0272C9.38001 18.0272 7.17092 16.2727 6.38001 13.9091H3.05273V16.4909C4.69819 19.7545 8.07092 22 11.98 22Z" fill="#1A1B1F"/>
<path d="M6.37999 13.9C6.17999 13.3 6.0618 12.6636 6.0618 12C6.0618 11.3364 6.17999 10.7 6.37999 10.1V7.51819H3.05271C2.37089 8.86364 1.97998 10.3818 1.97998 12C1.97998 13.6182 2.37089 15.1364 3.05271 16.4818L5.64362 14.4637L6.37999 13.9Z" fill="#1A1B1F"/>
<path d="M11.98 5.98182C13.4527 5.98182 14.7618 6.49091 15.8073 7.47273L18.6709 4.60909C16.9346 2.99091 14.68 2 11.98 2C8.07092 2 4.69819 4.24546 3.05273 7.51819L6.38001 10.1C7.17092 7.73637 9.38001 5.98182 11.98 5.98182Z" fill="#1A1B1F"/>
</svg>
